<?xml version="1.0" standalone="no"?>
<!DOCTYPE svg PUBLIC "-//W3C//DTD SVG 1.1//EN" "http://www.w3.org/Graphics/SVG/1.1/DTD/svg11.dtd" >
<svg xmlns="http://www.w3.org/2000/svg">
<metadata></metadata>
<defs>
<font id="gotechregular" horiz-adv-x="512" >
<font-face units-per-em="2048" ascent="1638" descent="-410" />
<missing-glyph horiz-adv-x="500" />
<glyph unicode=" " />
<glyph unicode="A" horiz-adv-x="1994" d="M0 0l686 1638h473l-346 -940l-43 -114h2l-217 -584h-555zM791 223l133 361h196l-100 262l246 667l632 -1513h-565l-88 223h-454z" />
<glyph unicode="B" horiz-adv-x="1611" d="M0 0v1638h512v-391v-264v-313v-279v-391h-512zM657 0v391h150q94 0 147.5 37t53.5 104q0 65 -52.5 101.5t-146.5 36.5h-152v313h115q193 0 193 135q0 54 -43 91.5t-152 37.5h-113v391h263q317 0 462 -145q99 -95 99 -254q0 -267 -287 -367l-49 -16l49 -14 q175 -51 258.5 -147t83.5 -249q0 -206 -168.5 -326t-458.5 -120h-252z" />
<glyph unicode="C" horiz-adv-x="1628" d="M0 819q0 138 41 264t116.5 226.5t178 174.5t231 114t269.5 40q113 0 213 -24t173.5 -61.5t136.5 -91.5t104.5 -106t76.5 -112l-416 -242q-104 189 -297 189q-137 0 -225 -104t-88 -267q0 -89 29 -168l-432 -254q-111 192 -111 422zM190 283l428 252q86 -86 209 -86 q61 0 111.5 16.5t87.5 47t62 61.5t49 71l413 -233q-242 -412 -735 -412q-191 0 -353 74.5t-272 208.5z" />
<glyph unicode="D" horiz-adv-x="1683" d="M0 0v1638h524v-1638h-524zM668 2v453q196 8 299.5 101.5t103.5 264.5q0 169 -104 262t-299 101v452q447 -11 691.5 -220.5t244.5 -586.5q0 -376 -248 -594t-688 -233z" />
<glyph unicode="E" horiz-adv-x="1474" d="M0 0v1638h516v-1638h-516zM659 0v426h746v-426h-746zM659 639v371h674v-371h-674zM659 1212v426h734v-426h-734z" />
<glyph unicode="F" horiz-adv-x="1462" d="M0 0v1638h516v-1638h-516zM659 639v371h674v-371h-674zM659 1212v426h734v-426h-734z" />
<glyph unicode="G" horiz-adv-x="1652" d="M0 819q0 201 87.5 371.5t243.5 282.5t355 149v-471q-83 -50 -130.5 -140t-47.5 -204q0 -111 47 -198.5t131 -139.5v-451q-203 38 -358 148t-241.5 279.5t-86.5 373.5zM825 2v416q54 -8 80 -8q123 0 191 39l8 4v186h-275v311h746v-719q-139 -112 -317.5 -171.5 t-374.5 -59.5q-9 0 -29 1t-29 1zM825 1200v436q7 0 20.5 1t20.5 1q379 0 650 -229l-281 -338q-161 133 -352 133q-40 0 -58 -4z" />
<glyph unicode="H" horiz-adv-x="1675" d="M0 0v1638h526v-1638h-526zM672 600v449h397v589h526v-1638h-526v600h-397z" />
<glyph unicode="I" horiz-adv-x="552" d="M0 0v1638h526v-1638h-526z" />
<glyph unicode="J" horiz-adv-x="1275" d="M0 279l334 282q94 -129 211 -129q75 0 121.5 56.5t46.5 148.5v246l501 424v-660q0 -163 -39 -275t-126 -198q-84 -84 -203.5 -129t-257.5 -45q-199 0 -342.5 68.5t-245.5 210.5zM713 1067v571h501v-145z" />
<glyph unicode="K" horiz-adv-x="1732" d="M0 0v1638h526v-657l500 657h590l-1090 -1286l4 -2l-4 -4v-346h-526zM766 412l358 422l525 -834h-627z" />
<glyph unicode="L" horiz-adv-x="1376" d="M0 0v1638h526v-1194v-444h-526zM672 0v444h639v-444h-639z" />
<glyph unicode="M" horiz-adv-x="1941" d="M0 0v1638h502v-1638h-502zM647 662v831l277 -457l368 602h557v-1638h-524v866l-405 -626z" />
<glyph unicode="N" horiz-adv-x="1720" d="M0 0v1638h500l12 -16v-1622h-512zM657 633v809l459 -572v768h522v-1638h-473z" />
<glyph unicode="O" horiz-adv-x="1808" d="M0 819q0 162 61 307.5t166 253.5t252 176.5t314 81.5v-448q-132 -24 -207.5 -131.5t-75.5 -239.5q0 -84 31.5 -160.5t97.5 -134.5t154 -75v-449q-167 12 -314 80.5t-252 176t-166 254t-61 308.5zM932 0v449q130 24 205 131t75 239q0 131 -75 238.5t-205 132.5v448 q166 -12 312.5 -80.5t251.5 -176t165.5 -254t60.5 -308.5q0 -216 -103.5 -397.5t-284 -293t-402.5 -128.5z" />
<glyph unicode="P" horiz-adv-x="1540" d="M0 0v1638h520v-1638h-520zM664 453v366h28q119 0 187.5 55t68.5 150t-66.5 148t-187.5 53h-30v413h71q349 0 540 -152t191 -431q0 -283 -196.5 -442.5t-546.5 -159.5h-59z" />
<glyph unicode="Q" horiz-adv-x="1810" d="M0 823q0 281 173 496.5t448 288.5v-506q-55 -55 -85 -131.5t-30 -157.5q0 -80 29.5 -155.5t85.5 -131.5v-489q-275 71 -448 286.5t-173 499.5zM758 12v434q43 -14 98 -14q58 0 117 19l26 8l-192 164l203 227l180 -160l4 25q12 50 12 100q0 96 -41.5 182.5t-124 143.5 t-188.5 57q-43 0 -94 -14v448q50 6 98 6q176 0 334 -63.5t271.5 -171.5t180 -259.5t66.5 -320.5q0 -249 -137 -448l-8 -13l161 -137l-202 -225l-172 156l-11 -9q-210 -139 -487 -139q-32 0 -94 4z" />
<glyph unicode="R" horiz-adv-x="1662" d="M0 0v1638h514v-1638h-514zM657 477v367h127q108 0 169 48t61 134q0 85 -59.5 130.5t-168.5 45.5h-129v436h144q401 0 590 -186q147 -147 147 -389q0 -168 -81.5 -294.5t-237.5 -201.5l-19 -8l383 -559h-598l-309 471l-10 6h-9z" />
<glyph unicode="S" horiz-adv-x="1572" d="M0 258l268 320q135 -103 305 -148v-414q-348 51 -573 242zM82 1112q0 202 131.5 338t359.5 174v-981q-87 23 -154.5 49t-133.5 65.5t-108.5 87t-68.5 116t-26 151.5zM713 4v397q59 -6 116 -6q154 0 154 88q0 45 -53.5 70.5t-181.5 50.5q-22 4 -35 8v451q63 -16 110 -25 q131 -24 227.5 -51t185 -68.5t143.5 -94t87.5 -126.5t32.5 -168q0 -246 -186.5 -388t-509.5 -142q-28 0 -90 4zM713 1243v393q12 2 37 2q222 0 393.5 -50.5t310.5 -157.5l-244 -338q-104 72 -229.5 111.5t-251.5 39.5h-16z" />
<glyph unicode="T" horiz-adv-x="1585" d="M0 1198v440h1509v-440h-1509zM492 0v1053h526v-1053h-526z" />
<glyph unicode="U" horiz-adv-x="1667" d="M0 752v886h524v-880q0 -2 1 -7t1 -8v-716q-526 114 -526 725zM668 6v473q60 -26 125 -26q130 0 200 76t70 219v890h524v-874q0 -381 -200.5 -572.5t-598.5 -191.5q-62 0 -120 6z" />
<glyph unicode="V" horiz-adv-x="1921" d="M0 1638h586l280 -811l-250 -716zM729 0l574 1638h526l-660 -1638h-440z" />
<glyph unicode="W" horiz-adv-x="2711" d="M0 1634h545l246 -831l278 835h455l20 -61l-547 -1557l-8 -20h-459zM1368 641l250 715l184 -553l246 831h535l-531 -1634h-459z" />
<glyph unicode="X" horiz-adv-x="1792" d="M0 1638h596l172 -286l-293 -434zM29 0l1108 1638h544l-530 -800l555 -838h-596l-274 449l-277 -449h-530z" />
<glyph unicode="Y" horiz-adv-x="1851" d="M0 1638h588l213 -409l-266 -510zM618 0v565l265 508v-2l299 567h579l-614 -1046l-2 -592h-527z" />
<glyph unicode="Z" horiz-adv-x="1603" d="M0 0v367l1184 1271h342v-368l-776 -844h776v-426h-1526zM29 1212v426h956l-397 -426h-559z" />
<glyph unicode="&#xa0;" />
<glyph unicode="&#x2000;" horiz-adv-x="819" />
<glyph unicode="&#x2001;" horiz-adv-x="1638" />
<glyph unicode="&#x2002;" horiz-adv-x="819" />
<glyph unicode="&#x2003;" horiz-adv-x="1638" />
<glyph unicode="&#x2004;" horiz-adv-x="546" />
<glyph unicode="&#x2005;" horiz-adv-x="409" />
<glyph unicode="&#x2006;" horiz-adv-x="273" />
<glyph unicode="&#x2007;" horiz-adv-x="273" />
<glyph unicode="&#x2008;" horiz-adv-x="204" />
<glyph unicode="&#x2009;" horiz-adv-x="327" />
<glyph unicode="&#x200a;" horiz-adv-x="91" />
<glyph unicode="&#x202f;" horiz-adv-x="327" />
<glyph unicode="&#x205f;" horiz-adv-x="409" />
<glyph unicode="&#xe000;" horiz-adv-x="1024" d="M0 0z" />
</font>
</defs>
</svg>
